# xmcd
#
# Track frame offsets:
# 150
# 9710
# 23087
# 34427
# 44150
# 52865
# 64042
# 75707
# 88087
# 99952
# 113062
#
# Disc length: 1657 seconds
#
#
# Revision: 1
# Processed by: cddbd v1.5.1PL2 Copyright (c) Steve Scherf et al.
# Submitted via: FreeRIP 2.945 
#
DISCID=8706770b
DTITLE=Loretta Lynn - Who Says God Is Dead
DYEAR=1968
DGENRE=Gospel
TTITLE0=Who Says God Is Dead
TTITLE1=Standing Room Only
TTITLE2=I Believe
TTITLE3=Harp With Golden Strings
TTITLE4=I'm A' Gettin' Ready To Go
TTITLE5=He Got The Whole World In His Hands
TTITLE6=The Old Rugged Cross
TTITLE7=If You Miss Heaven(You'l Miss It All)
TTITLE8=In The Garden
TTITLE9=Ten Thousand Angels
TTITLE10=Mama Why
EXTD=MCA Records
EXTT0=
EXTT1=
EXTT2=
EXTT3=
EXTT4=
EXTT5=
EXTT6=
EXTT7=
EXTT8=
EXTT9=
EXTT10=
PLAYORDER=
